<svg xmlns="http://www.w3.org/2000/svg" width="580" height="289" viewBox="0 0 580 289" version="1.1">
	<path d="M 51 70 L 51 91 53.500 91 C 55.979 91, 56 90.924, 56 82.136 L 56 73.272 60.640 72.636 C 63.191 72.286, 66.826 72, 68.716 72 C 73.978 72, 78 67.505, 78 61.624 C 78 51.618, 74.390 49, 60.596 49 L 51 49 51 70 M 115 70 L 115 91 117.500 91 C 119.991 91, 120 90.967, 120 81.500 L 120 72 128.500 72 L 137 72 137 79.918 C 137 89.468, 137.499 91, 140.607 91 L 143 91 143 70 L 143 49 140.500 49 C 139.125 49, 137.981 49.563, 137.959 50.250 C 137.936 50.938, 137.817 54.875, 137.695 59 L 137.473 66.500 128.986 66.500 L 120.500 66.500 120.211 57.750 C 119.929 49.199, 119.866 49, 117.461 49 L 115 49 115 70 M 183.400 52.400 L 180 55.800 180 70 L 180 84.200 183.400 87.600 C 186.590 90.790, 187.214 91, 193.500 91 C 199.786 91, 200.410 90.790, 203.600 87.600 L 207 84.200 207 70 L 207 55.800 203.600 52.400 C 198.504 47.304, 188.496 47.304, 183.400 52.400 M 244 51.500 C 244 53.864, 244.300 54, 249.500 54 L 255 54 255 72.500 L 255 91 257.500 91 L 260 91 260 72.500 L 260 54 266 54 C 271.733 54, 272 53.889, 272 51.500 L 272 49 258 49 L 244 49 244 51.500 M 312.400 52.400 L 309 55.800 309 70 L 309 84.200 312.400 87.600 C 315.590 90.790, 316.214 91, 322.500 91 C 328.786 91, 329.410 90.790, 332.600 87.600 L 336 84.200 335.978 69.850 C 335.949 51.248, 334.438 49, 321.966 49 C 316.287 49, 315.531 49.269, 312.400 52.400 M 377.111 51.560 C 373.511 54.589, 372.222 59.708, 373.987 63.968 C 375.399 67.378, 377.286 68.682, 385.500 71.928 C 395.013 75.686, 397.783 80.171, 393.171 84.345 C 389.113 88.018, 378 85.693, 378 81.171 C 378 80.527, 376.875 80, 375.500 80 C 371.644 80, 372.177 84.070, 376.535 87.896 C 379.721 90.694, 380.717 91, 386.635 91 C 395.290 91, 400 87.031, 400 79.736 C 400 73.923, 397.116 70.984, 387.994 67.498 C 378.931 64.035, 376.252 60.016, 379.997 55.503 C 382.267 52.768, 391.617 53.486, 393.625 56.550 C 395.670 59.671, 399.670 59.635, 399.201 56.500 C 398.119 49.268, 383.674 46.038, 377.111 51.560 M 437.182 49.866 C 436.176 50.504, 437.300 53.034, 441.932 60.554 L 448 70.405 448 80.703 L 448 91 451 91 L 454 91 454 80.703 L 454 70.405 460.068 60.554 C 464.700 53.034, 465.824 50.504, 464.818 49.866 C 462.169 48.187, 461.018 49.152, 456.315 57 C 453.679 61.400, 451.287 65, 451 65 C 450.713 65, 448.321 61.400, 445.685 57 C 440.982 49.152, 439.831 48.187, 437.182 49.866 M 503 70 L 503 91 505.500 91 L 508 91 508.031 74.750 L 508.062 58.500 515.962 74.750 C 523.621 90.504, 523.956 91, 526.931 91 L 530 91 530 70 L 530 49 527.500 49 L 525 49 524.921 65.250 L 524.841 81.500 516.976 65.250 C 509.358 49.512, 509.014 49, 506.055 49 L 503 49 503 70 M 56 61 L 56 68 62.500 68 C 70.208 68, 73 66.047, 73 60.655 C 73 55.570, 70.563 54, 62.671 54 L 56 54 56 61 M 186.557 56.223 C 185.366 57.923, 185 61.160, 185 70 C 185 84.558, 185.757 86, 193.402 86 C 201.452 86, 202 84.969, 202 69.826 C 202 54.986, 201.454 54, 193.228 54 C 189.076 54, 187.820 54.418, 186.557 56.223 M 315.557 56.223 C 314.366 57.923, 314 61.160, 314 70 C 314 84.558, 314.757 86, 322.402 86 C 330.452 86, 331 84.969, 331 69.826 C 331 54.986, 330.454 54, 322.228 54 C 318.076 54, 316.820 54.418, 315.557 56.223 M 330.518 161.464 C 307.616 183.751, 307.542 183.836, 309.423 185.914 C 310.461 187.061, 311.723 188, 312.228 188 C 312.733 188, 322.407 178.966, 333.726 167.924 L 354.305 147.848 362.403 155.690 C 366.856 160.003, 376.165 169.037, 383.089 175.766 C 396.576 188.873, 396.783 189.003, 399.446 186.060 C 401.151 184.176, 400.669 183.601, 382.851 166.260 C 363.023 146.962, 354.520 138.972, 353.896 139.049 C 353.678 139.076, 343.158 149.163, 330.518 161.464 M 224.667 141.667 C 224.300 142.033, 224 151.033, 224 161.667 L 224 181 205 181 L 186 181 186 184.511 L 186 188.022 226.750 187.761 L 267.500 187.500 267.813 184.250 L 268.127 181 249.063 181 L 230 181 230 161 L 230 141 227.667 141 C 226.383 141, 225.033 141.300, 224.667 141.667 M 192.122 148.750 L 190.023 150.500 197.526 162.500 C 205.850 175.811, 205.831 175.793, 208.819 173.283 L 210.941 171.500 203.220 159.253 C 194.806 145.904, 195.148 146.228, 192.122 148.750 M 257.249 149.750 C 244.842 167.832, 242.431 173.852, 247.217 174.796 C 248.454 175.040, 256.593 163.201, 263.449 151.183 C 263.903 150.388, 263.467 149.312, 262.350 148.465 C 259.788 146.525, 259.394 146.624, 257.249 149.750 M 331 181 L 331 184 354.500 184 L 378 184 378 181 L 378 178 354.500 178 L 331 178 331 181 M 210 195.522 C 210 196.360, 204.831 206.147, 198.513 217.272 L 187.026 237.500 189.263 239.228 C 190.493 240.178, 191.761 240.966, 192.081 240.978 C 192.400 240.990, 195.991 235.037, 200.061 227.750 C 204.130 220.463, 209.790 210.450, 212.638 205.500 C 218.209 195.819, 218.247 194, 212.878 194 C 210.968 194, 210 194.512, 210 195.522 M 239 217 L 239 240 253 240 L 267 240 267 237.131 C 267 233.786, 264.386 233.030, 252.750 233.011 L 246 233 246 213.500 L 246 194 242.500 194 L 239 194 239 217 M 324.667 197.667 C 324.300 198.033, 324 207.715, 324 219.181 L 324 240.029 354.750 239.764 L 385.500 239.500 385.784 220.500 C 385.940 210.050, 385.819 200.488, 385.515 199.250 L 384.962 197 355.148 197 C 338.750 197, 325.033 197.300, 324.667 197.667 M 330.223 218.750 L 330.500 233.500 354.750 233.768 L 379 234.036 379 219.018 L 379 204 354.473 204 L 329.947 204 330.223 218.750" stroke="none" fill="#1c1c1a" fill-rule="evenodd"/>
</svg>